<svg xmlns="http://www.w3.org/2000/svg" width="26.62" height="27.532" viewBox="0 0 26.62 27.532">
  <defs>
    <style>
      .cls-1 {
        fill: #05c5cd;
        fill-rule: evenodd;
      }
    </style>
  </defs>
  <path id="X" class="cls-1" d="M1698.47,307.65q-0.165-.195-3.91-4.317-3.195-3.516-3.19-3.847a39.1,39.1,0,0,1,3.62-4.161q3.615-3.925,3.62-4.433v-4.746c0-.222-0.27-0.332-0.82-0.332h-5.58q-0.42,0-3.25,3.613a29.232,29.232,0,0,1-3.45,3.984,45.444,45.444,0,0,1-3.18-3.8q-3.03-3.8-3.41-3.8c-0.29,0-.75.013-1.36,0.039s-1.07.039-1.38,0.039c-0.34,0-.87-0.02-1.57-0.059s-1.23-.058-1.59-0.058c-0.55,0-.82.123-0.82,0.371a11.611,11.611,0,0,0,.08,1.211c0.05,0.546.08,0.95,0.08,1.211,0,0.065-.02.377-0.07,0.937q-0.015.7,0,1.113a1.508,1.508,0,0,0,.26.84q1.95,2.109,3.91,4.2,3.12,3.38,3.12,3.868t-3.12,3.925q-3.84,4.258-3.86,4.278a6.132,6.132,0,0,0-.36,2.851c0,0.248.02,0.625,0.06,1.133s0.06,0.9.06,1.172,1.6,0.41,4.81.41a10.868,10.868,0,0,0,1.75-.078c0.32-.078,1.39-1.27,3.24-3.574a37.411,37.411,0,0,1,3.37-3.946q0.12,0.021,3.12,3.77t3.38,3.75q0.465,0,1.41.039c0.64,0.026,1.11.039,1.43,0.039s0.72,0.007,1.19.02h0.93a1.9,1.9,0,0,0,1.6-.43,6.544,6.544,0,0,0,.21-2.266,7.091,7.091,0,0,0-.33-2.968h0Z" transform="translate(-1672.19 -285.781)"/>
</svg>
